<?xml version="1.0" encoding="UTF-8"?>
<svg version="1.1" xmlns="http://www.w3.org/2000/svg" width="650" height="650">
<path d="M0 0 C2.32414159 1.04738366 4.67266352 2.0134846 7.05322266 2.92529297 C7.05322266 3.58529297 7.05322266 4.24529297 7.05322266 4.92529297 C7.93244385 5.03703857 8.81166504 5.14878418 9.7175293 5.26391602 C13.06603996 5.92783429 15.42381099 6.91161203 18.42431641 8.50732422 C19.41109375 9.02746094 20.39787109 9.54759766 21.41455078 10.08349609 C22.4296875 10.62941406 23.44482422 11.17533203 24.49072266 11.73779297 C25.50199219 12.27210938 26.51326172 12.80642578 27.55517578 13.35693359 C35.30975024 17.46943786 42.90043954 21.7997998 50.41259766 26.33935547 C52.22818315 27.42978108 54.0516086 28.50722511 55.88134766 29.57373047 C56.78369141 30.10224609 57.68603516 30.63076172 58.61572266 31.17529297 C59.44201172 31.65482422 60.26830078 32.13435547 61.11962891 32.62841797 C63.05322266 33.92529297 63.05322266 33.92529297 64.05322266 35.92529297 C65.73297966 36.65353545 67.41501768 37.37715483 69.11035156 38.06835938 C75.42536426 40.85369421 83.31200298 45.6726947 86.92822266 51.73779297 C88.90076141 57.09334174 88.56327263 62.49709569 87.05322266 67.92529297 C84.79356546 72.25753335 82.25764884 76.22939038 79.05322266 79.92529297 C78.39322266 79.92529297 77.73322266 79.92529297 77.05322266 79.92529297 C76.72322266 81.24529297 76.39322266 82.56529297 76.05322266 83.92529297 C75.39322266 83.92529297 74.73322266 83.92529297 74.05322266 83.92529297 C73.92947266 84.72966797 73.92947266 84.72966797 73.80322266 85.55029297 C72.77740995 88.79869988 71.08758372 91.21281156 69.05322266 93.92529297 C68.39322266 93.92529297 67.73322266 93.92529297 67.05322266 93.92529297 C67.05322266 94.91529297 67.05322266 95.90529297 67.05322266 96.92529297 C66.39322266 96.92529297 65.73322266 96.92529297 65.05322266 96.92529297 C64.72322266 98.24529297 64.39322266 99.56529297 64.05322266 100.92529297 C63.39322266 100.92529297 62.73322266 100.92529297 62.05322266 100.92529297 C61.72322266 102.24529297 61.39322266 103.56529297 61.05322266 104.92529297 C60.39322266 104.92529297 59.73322266 104.92529297 59.05322266 104.92529297 C58.72322266 106.24529297 58.39322266 107.56529297 58.05322266 108.92529297 C57.39322266 108.92529297 56.73322266 108.92529297 56.05322266 108.92529297 C55.95009766 109.48216797 55.84697266 110.03904297 55.74072266 110.61279297 C54.91143857 113.40220307 53.7102321 115.53919937 52.05322266 117.92529297 C51.39322266 117.92529297 50.73322266 117.92529297 50.05322266 117.92529297 C49.95912109 118.47830078 49.86501953 119.03130859 49.76806641 119.60107422 C48.864135 122.54008617 47.39427814 124.60950386 45.61572266 127.11279297 C44.99826172 127.99322266 44.38080078 128.87365234 43.74462891 129.78076172 C42.05322266 131.92529297 42.05322266 131.92529297 40.05322266 132.92529297 C39.72322266 133.91529297 39.39322266 134.90529297 39.05322266 135.92529297 C38.39322266 135.92529297 37.73322266 135.92529297 37.05322266 135.92529297 C36.90884766 136.54404297 36.76447266 137.16279297 36.61572266 137.80029297 C36.05322266 139.92529297 36.05322266 139.92529297 35.05322266 141.92529297 C34.39322266 141.92529297 33.73322266 141.92529297 33.05322266 141.92529297 C32.96041016 142.79154297 32.96041016 142.79154297 32.86572266 143.67529297 C31.71611287 146.85882775 29.79646104 148.03115218 27.05322266 149.92529297 C21.52674852 151.76745101 15.01737005 151.9584585 9.48681641 150.03076172 C7.30322266 148.92529297 7.30322266 148.92529297 4.05322266 146.92529297 C4.05322266 146.26529297 4.05322266 145.60529297 4.05322266 144.92529297 C3.43447266 144.78091797 2.81572266 144.63654297 2.17822266 144.48779297 C0.05322266 143.92529297 0.05322266 143.92529297 -1.94677734 142.92529297 C-1.94677734 142.26529297 -1.94677734 141.60529297 -1.94677734 140.92529297 C-2.50397461 140.81644775 -3.06117188 140.70760254 -3.63525391 140.59545898 C-6.34873626 139.80875545 -8.48636734 138.61882315 -10.93115234 137.20263672 C-12.33300781 136.39536133 -12.33300781 136.39536133 -13.76318359 135.57177734 C-14.73126953 135.0078125 -15.69935547 134.44384766 -16.69677734 133.86279297 C-17.68033203 133.29496094 -18.66388672 132.72712891 -19.67724609 132.14208984 C-22.1029736 130.74082007 -24.52599856 129.3350891 -26.94677734 127.92529297 C-26.94677734 127.26529297 -26.94677734 126.60529297 -26.94677734 125.92529297 C-27.94837891 125.80347656 -27.94837891 125.80347656 -28.97021484 125.67919922 C-32.86104036 124.69372766 -36.09845421 122.80904468 -39.57177734 120.86279297 C-48.76975086 115.8626329 -58.21709273 111.77047391 -67.94677734 107.92529297 C-69.07889648 107.47307373 -69.07889648 107.47307373 -70.23388672 107.01171875 C-110.58349986 91.03055175 -154.64352197 83.71221604 -197.94677734 83.67529297 C-199.03761124 83.67428085 -199.03761124 83.67428085 -200.15048218 83.67324829 C-252.61033849 83.74931107 -306.74760968 95.14755002 -353.38427734 119.73779297 C-355.94677734 120.92529297 -355.94677734 120.92529297 -359.94677734 120.92529297 C-360.27677734 121.91529297 -360.60677734 122.90529297 -360.94677734 123.92529297 C-363.56396484 125.53076172 -363.56396484 125.53076172 -366.82177734 127.11279297 C-367.89169922 127.64259766 -368.96162109 128.17240234 -370.06396484 128.71826172 C-372.94677734 129.92529297 -372.94677734 129.92529297 -375.94677734 129.92529297 C-375.94677734 130.58529297 -375.94677734 131.24529297 -375.94677734 131.92529297 C-378.96810417 133.81647039 -382.09020425 135.4743066 -385.22412109 137.17138672 C-388.21915524 138.69863461 -388.21915524 138.69863461 -388.94677734 141.92529297 C-388.28677734 141.92529297 -387.62677734 141.92529297 -386.94677734 141.92529297 C-386.94677734 142.91529297 -386.94677734 143.90529297 -386.94677734 144.92529297 C-386.28677734 144.92529297 -385.62677734 144.92529297 -384.94677734 144.92529297 C-380.94677734 150.33705767 -380.94677734 150.33705767 -380.94677734 152.92529297 C-380.28677734 152.92529297 -379.62677734 152.92529297 -378.94677734 152.92529297 C-375.94677734 157.30990835 -375.94677734 157.30990835 -375.94677734 159.92529297 C-374.95677734 160.25529297 -373.96677734 160.58529297 -372.94677734 160.92529297 C-371.89721569 162.56120192 -370.90655682 164.23514471 -369.94677734 165.92529297 C-367.63928165 169.04243628 -365.27489873 172.11112897 -362.90771484 175.18310547 C-360.94677734 177.92529297 -360.94677734 177.92529297 -359.94677734 180.92529297 C-358.2406831 181.9967642 -358.2406831 181.9967642 -355.94677734 181.92529297 C-352.93444083 180.5066455 -352.93444083 180.5066455 -349.88427734 178.48779297 C-344.24423331 174.92529297 -344.24423331 174.92529297 -340.94677734 174.92529297 C-340.94677734 174.26529297 -340.94677734 173.60529297 -340.94677734 172.92529297 C-269.37989207 137.3465106 -186.55784657 127.02727102 -109.59130859 152.33544922 C-93.11834483 157.91009958 -77.38181142 164.92542775 -61.94677734 172.92529297 C-61.94677734 173.58529297 -61.94677734 174.24529297 -61.94677734 174.92529297 C-61.35509766 175.10705078 -60.76341797 175.28880859 -60.15380859 175.47607422 C-51.6418357 178.18379806 -51.6418357 178.18379806 -47.94677734 180.92529297 C-47.94677734 181.58529297 -47.94677734 182.24529297 -47.94677734 182.92529297 C-47.39376953 183.02583984 -46.84076172 183.12638672 -46.27099609 183.22998047 C-41.34511361 184.70360582 -37.16856188 188.06703073 -32.94677734 190.92529297 C-32.09599609 191.49892578 -31.24521484 192.07255859 -30.36865234 192.66357422 C-25.26409619 196.3398688 -21.77171955 199.79348717 -19.94677734 205.92529297 C-19.22736837 211.6805648 -20.74809125 215.70341351 -22.94677734 220.92529297 C-23.60677734 220.92529297 -24.26677734 220.92529297 -24.94677734 220.92529297 C-25.07052734 221.56466797 -25.19427734 222.20404297 -25.32177734 222.86279297 C-25.63115234 223.88373047 -25.63115234 223.88373047 -25.94677734 224.92529297 C-26.60677734 225.25529297 -27.26677734 225.58529297 -27.94677734 225.92529297 C-28.99178586 227.54525189 -28.99178586 227.54525189 -29.94677734 229.42529297 C-31.72455512 232.81418186 -31.72455512 232.81418186 -33.94677734 233.92529297 C-34.9128125 235.60281406 -35.8749468 237.2828047 -36.80957031 238.97802734 C-38.6192823 242.0768386 -40.79718394 244.85628339 -43.00927734 247.67529297 C-43.44304687 248.23861328 -43.87681641 248.80193359 -44.32373047 249.38232422 C-46.00986806 251.55351508 -47.6841824 253.66391374 -49.63427734 255.60498047 C-51.52303657 257.50498231 -52.61482751 259.81404442 -53.90380859 262.14013672 C-55.35694956 264.62734804 -57.01113667 266.79608823 -58.94677734 268.92529297 C-59.60677734 268.92529297 -60.26677734 268.92529297 -60.94677734 268.92529297 C-61.06150391 269.50923828 -61.17623047 270.09318359 -61.29443359 270.69482422 C-61.99377803 273.08599591 -62.91983233 274.60950171 -64.38427734 276.61279297 C-65.03203125 277.51578125 -65.03203125 277.51578125 -65.69287109 278.43701172 C-66.94677734 279.92529297 -66.94677734 279.92529297 -68.94677734 280.92529297 C-69.27677734 281.91529297 -69.60677734 282.90529297 -69.94677734 283.92529297 C-70.60677734 284.25529297 -71.26677734 284.58529297 -71.94677734 284.92529297 C-72.44177734 285.77091797 -72.93677734 286.61654297 -73.44677734 287.48779297 C-74.18927734 288.69435547 -74.18927734 288.69435547 -74.94677734 289.92529297 C-75.60677734 289.92529297 -76.26677734 289.92529297 -76.94677734 289.92529297 C-77.23552734 290.70904297 -77.52427734 291.49279297 -77.82177734 292.30029297 C-78.94677734 294.92529297 -78.94677734 294.92529297 -80.94677734 296.92529297 C-82.26677734 296.92529297 -83.58677734 296.92529297 -84.94677734 296.92529297 C-84.94677734 297.58529297 -84.94677734 298.24529297 -84.94677734 298.92529297 C-93.06513501 299.67854265 -98.30325551 298.91022699 -105.18115234 294.43310547 C-105.76380859 293.93552734 -106.34646484 293.43794922 -106.94677734 292.92529297 C-106.94677734 292.26529297 -106.94677734 291.60529297 -106.94677734 290.92529297 C-107.93677734 290.92529297 -108.92677734 290.92529297 -109.94677734 290.92529297 C-109.94677734 290.26529297 -109.94677734 289.60529297 -109.94677734 288.92529297 C-110.51017822 288.81137207 -111.0735791 288.69745117 -111.65405273 288.58007812 C-114.2370698 287.8423876 -116.2865535 286.76104423 -118.63037109 285.44873047 C-150.51114666 267.96599565 -194.08106776 255.60215872 -230.55615234 264.83935547 C-231.67505859 265.19771484 -232.79396484 265.55607422 -233.94677734 265.92529297 C-235.46825488 266.27570832 -236.99339628 266.61042356 -238.52099609 266.93310547 C-252.35676378 269.92645315 -265.68585839 274.06031081 -278.26318359 280.66748047 C-280.94677734 281.92529297 -280.94677734 281.92529297 -284.94677734 281.92529297 C-284.94677734 282.58529297 -284.94677734 283.24529297 -284.94677734 283.92529297 C-289.33139273 286.92529297 -289.33139273 286.92529297 -291.94677734 286.92529297 C-291.28677734 287.85341797 -290.62677734 288.78154297 -289.94677734 289.73779297 C-287.94677734 292.92529297 -287.94677734 292.92529297 -287.94677734 295.92529297 C-287.28677734 295.92529297 -286.62677734 295.92529297 -285.94677734 295.92529297 C-285.61677734 296.91529297 -285.28677734 297.90529297 -284.94677734 298.92529297 C-283.6347733 300.27961972 -282.30046331 301.61262779 -280.94677734 302.92529297 C-278.94677734 305.92529297 -278.94677734 305.92529297 -278.94677734 308.92529297 C-278.28677734 308.92529297 -277.62677734 308.92529297 -276.94677734 308.92529297 C-275.22021484 311.00732422 -275.22021484 311.00732422 -273.32177734 313.73779297 C-272.69013672 314.63111328 -272.05849609 315.52443359 -271.40771484 316.44482422 C-269.94677734 318.92529297 -269.94677734 318.92529297 -269.94677734 321.92529297 C-269.28677734 321.92529297 -268.62677734 321.92529297 -267.94677734 321.92529297 C-266.68505859 323.79638672 -266.68505859 323.79638672 -265.25927734 326.36279297 C-262.64341166 330.88753362 -259.73868754 334.9492963 -256.46240234 339.01513672 C-252.94677734 343.44591153 -252.94677734 343.44591153 -252.94677734 346.92529297 C-251.50746617 346.47267939 -250.07038736 346.01296318 -248.63427734 345.55029297 C-247.43351562 345.16744141 -247.43351562 345.16744141 -246.20849609 344.77685547 C-243.71953206 343.93697486 -243.71953206 343.93697486 -240.94677734 341.92529297 C-238.25927734 341.80029297 -238.25927734 341.80029297 -235.94677734 341.92529297 C-235.94677734 341.26529297 -235.94677734 340.60529297 -235.94677734 339.92529297 C-233.44822968 339.27336609 -230.94816364 338.62866233 -228.44677734 337.98779297 C-227.75068359 337.80539062 -227.05458984 337.62298828 -226.33740234 337.43505859 C-199.79947952 330.67771713 -173.73329288 336.39866644 -149.94677734 348.92529297 C-149.94677734 349.58529297 -149.94677734 350.24529297 -149.94677734 350.92529297 C-149.34865234 351.04904297 -148.75052734 351.17279297 -148.13427734 351.30029297 C-145.94677734 351.92529297 -145.94677734 351.92529297 -142.94677734 353.92529297 C-142.94677734 354.58529297 -142.94677734 355.24529297 -142.94677734 355.92529297 C-142.28677734 355.92529297 -141.62677734 355.92529297 -140.94677734 355.92529297 C-141.00683813 357.38477002 -141.09564624 358.84308569 -141.19677734 360.30029297 C-141.24318359 361.11240234 -141.28958984 361.92451172 -141.33740234 362.76123047 C-141.94677734 364.92529297 -141.94677734 364.92529297 -143.99365234 366.21435547 C-144.96044922 366.56626953 -144.96044922 366.56626953 -145.94677734 366.92529297 C-145.94677734 367.58529297 -145.94677734 368.24529297 -145.94677734 368.92529297 C-146.60677734 368.92529297 -147.26677734 368.92529297 -147.94677734 368.92529297 C-148.05256104 369.50126221 -148.15834473 370.07723145 -148.26733398 370.6706543 C-149.0503983 373.26914475 -150.1662114 374.85162139 -151.81787109 376.99951172 C-152.39214844 377.74910156 -152.96642578 378.49869141 -153.55810547 379.27099609 C-154.16074219 380.04378906 -154.76337891 380.81658203 -155.38427734 381.61279297 C-155.98304688 382.3971875 -156.58181641 383.18158203 -157.19873047 383.98974609 C-161.67507168 389.78944014 -161.67507168 389.78944014 -163.94677734 390.92529297 C-164.44177734 391.77091797 -164.93677734 392.61654297 -165.44677734 393.48779297 C-166.18927734 394.69435547 -166.18927734 394.69435547 -166.94677734 395.92529297 C-167.60677734 395.92529297 -168.26677734 395.92529297 -168.94677734 395.92529297 C-169.28708984 397.00810547 -169.28708984 397.00810547 -169.63427734 398.11279297 C-171.20299732 401.47433577 -173.30318956 403.34618294 -175.94677734 405.92529297 C-176.97691012 407.57350541 -177.97792363 409.24032999 -178.94677734 410.92529297 C-180.94677734 413.73779297 -180.94677734 413.73779297 -182.94677734 415.92529297 C-183.93677734 415.92529297 -184.92677734 415.92529297 -185.94677734 415.92529297 C-185.94677734 414.27529297 -185.94677734 412.62529297 -185.94677734 410.92529297 C-185.28677734 410.92529297 -184.62677734 410.92529297 -183.94677734 410.92529297 C-183.84365234 410.36841797 -183.74052734 409.81154297 -183.63427734 409.23779297 C-182.80499326 406.44838287 -181.60378679 404.31138657 -179.94677734 401.92529297 C-179.28677734 401.92529297 -178.62677734 401.92529297 -177.94677734 401.92529297 C-177.84365234 401.36841797 -177.74052734 400.81154297 -177.63427734 400.23779297 C-176.80499326 397.44838287 -175.60378679 395.31138657 -173.94677734 392.92529297 C-173.28677734 392.92529297 -172.62677734 392.92529297 -171.94677734 392.92529297 C-171.85267578 392.38001953 -171.75857422 391.83474609 -171.66162109 391.27294922 C-170.74419864 388.25999352 -169.23223346 385.99558455 -167.50927734 383.36279297 C-166.89181641 382.41275391 -166.27435547 381.46271484 -165.63818359 380.48388672 C-164.4116077 378.62844281 -163.18055335 376.77595698 -161.94677734 374.92529297 C-161.28677734 374.92529297 -160.62677734 374.92529297 -159.94677734 374.92529297 C-159.82302734 374.16216797 -159.69927734 373.39904297 -159.57177734 372.61279297 C-158.94677734 369.92529297 -158.94677734 369.92529297 -156.94677734 366.92529297 C-156.28677734 366.92529297 -155.62677734 366.92529297 -154.94677734 366.92529297 C-154.61677734 365.60529297 -154.28677734 364.28529297 -153.94677734 362.92529297 C-153.28677734 362.92529297 -152.62677734 362.92529297 -151.94677734 362.92529297 C-155.10093636 359.28345849 -158.46161649 357.54758929 -162.88427734 355.86279297 C-163.88116577 355.47764526 -163.88116577 355.47764526 -164.89819336 355.0847168 C-187.00766193 346.78740819 -209.34174941 347.20435337 -230.94287109 356.52294922 C-232.70416182 357.34519027 -234.45376223 358.1952691 -236.16943359 359.10888672 C-237.94677734 359.92529297 -237.94677734 359.92529297 -240.94677734 359.92529297 C-240.94677734 360.58529297 -240.94677734 361.24529297 -240.94677734 361.92529297 C-246.69677734 364.92529297 -246.69677734 364.92529297 -248.94677734 364.92529297 C-248.94677734 365.58529297 -248.94677734 366.24529297 -248.94677734 366.92529297 C-252.24677734 366.92529297 -255.54677734 366.92529297 -258.94677734 366.92529297 C-258.94677734 366.26529297 -258.94677734 365.60529297 -258.94677734 364.92529297 C-259.58615234 364.65716797 -260.22552734 364.38904297 -260.88427734 364.11279297 C-262.94677734 362.92529297 -262.94677734 362.92529297 -263.94677734 359.92529297 C-265.59771504 358.24304439 -267.26696441 356.57870884 -268.94677734 354.92529297 C-270.56831582 352.93498526 -272.15187612 350.91315684 -273.69677734 348.86279297 C-274.86466797 347.32945312 -274.86466797 347.32945312 -276.05615234 345.76513672 C-277.73802308 343.23885568 -278.24074181 341.75597247 -278.94677734 338.92529297 C-279.93677734 338.59529297 -280.92677734 338.26529297 -281.94677734 337.92529297 C-282.61344401 336.59195964 -283.28011068 335.2586263 -283.94677734 333.92529297 C-284.81302734 333.07966797 -285.67927734 332.23404297 -286.57177734 331.36279297 C-288.94677734 328.92529297 -288.94677734 328.92529297 -288.94677734 325.92529297 C-289.93677734 325.59529297 -290.92677734 325.26529297 -291.94677734 324.92529297 C-293.77099609 322.96435547 -293.77099609 322.96435547 -295.63427734 320.55029297 C-296.25689453 319.75880859 -296.87951172 318.96732422 -297.52099609 318.15185547 C-298.94677734 315.92529297 -298.94677734 315.92529297 -298.94677734 312.92529297 C-299.52814453 312.69970703 -300.10951172 312.47412109 -300.70849609 312.24169922 C-303.58235344 310.55148992 -304.86820403 308.60119037 -306.75927734 305.86279297 C-309.33306741 302.17080198 -311.9771197 298.67134953 -314.88427734 295.23779297 C-318.17445461 291.05574533 -318.94677734 288.23291281 -318.94677734 282.92529297 C-318.50927734 280.42529297 -318.50927734 280.42529297 -317.94677734 278.92529297 C-317.28677734 278.92529297 -316.62677734 278.92529297 -315.94677734 278.92529297 C-315.86427734 278.32716797 -315.78177734 277.72904297 -315.69677734 277.11279297 C-314.72383308 274.27503886 -313.50228421 273.4285323 -310.94677734 271.92529297 C-309.95677734 271.92529297 -308.96677734 271.92529297 -307.94677734 271.92529297 C-307.94677734 271.26529297 -307.94677734 270.60529297 -307.94677734 269.92529297 C-306.11083984 268.62841797 -306.11083984 268.62841797 -303.57177734 267.17529297 C-299.64776916 264.92115432 -299.64776916 264.92115432 -295.79443359 262.55029297 C-274.62225154 249.07360566 -251.5346826 241.85935781 -226.94677734 237.92529297 C-226.23908203 237.80669922 -225.53138672 237.68810547 -224.80224609 237.56591797 C-187.54103149 231.48836063 -145.79314274 237.00211027 -111.94677734 253.92529297 C-111.94677734 254.58529297 -111.94677734 255.24529297 -111.94677734 255.92529297 C-111.08052734 256.02841797 -110.21427734 256.13154297 -109.32177734 256.23779297 C-105.77994611 256.95927711 -103.10365692 258.19652558 -99.94677734 259.92529297 C-99.94677734 260.58529297 -99.94677734 261.24529297 -99.94677734 261.92529297 C-97.63677734 262.25529297 -95.32677734 262.58529297 -92.94677734 262.92529297 C-92.94677734 261.93529297 -92.94677734 260.94529297 -92.94677734 259.92529297 C-92.28677734 259.92529297 -91.62677734 259.92529297 -90.94677734 259.92529297 C-90.61677734 258.60529297 -90.28677734 257.28529297 -89.94677734 255.92529297 C-89.28677734 255.92529297 -88.62677734 255.92529297 -87.94677734 255.92529297 C-87.80240234 255.30654297 -87.65802734 254.68779297 -87.50927734 254.05029297 C-86.94677734 251.92529297 -86.94677734 251.92529297 -85.94677734 249.92529297 C-85.28677734 249.92529297 -84.62677734 249.92529297 -83.94677734 249.92529297 C-83.61677734 248.60529297 -83.28677734 247.28529297 -82.94677734 245.92529297 C-82.28677734 245.92529297 -81.62677734 245.92529297 -80.94677734 245.92529297 C-80.94677734 244.93529297 -80.94677734 243.94529297 -80.94677734 242.92529297 C-80.28677734 242.92529297 -79.62677734 242.92529297 -78.94677734 242.92529297 C-78.61677734 241.60529297 -78.28677734 240.28529297 -77.94677734 238.92529297 C-77.28677734 238.92529297 -76.62677734 238.92529297 -75.94677734 238.92529297 C-75.82302734 238.32716797 -75.69927734 237.72904297 -75.57177734 237.11279297 C-74.94677734 234.92529297 -74.94677734 234.92529297 -72.94677734 231.92529297 C-72.28677734 231.92529297 -71.62677734 231.92529297 -70.94677734 231.92529297 C-70.84365234 231.36841797 -70.74052734 230.81154297 -70.63427734 230.23779297 C-69.80499326 227.44838287 -68.60378679 225.31138657 -66.94677734 222.92529297 C-66.28677734 222.92529297 -65.62677734 222.92529297 -64.94677734 222.92529297 C-64.63740234 222.14154297 -64.32802734 221.35779297 -64.00927734 220.55029297 C-62.94677734 217.92529297 -62.94677734 217.92529297 -61.94677734 215.92529297 C-61.28677734 215.92529297 -60.62677734 215.92529297 -59.94677734 215.92529297 C-59.94677734 214.93529297 -59.94677734 213.94529297 -59.94677734 212.92529297 C-60.99671875 212.79574219 -60.99671875 212.79574219 -62.06787109 212.66357422 C-65.61782398 211.75320638 -67.94915364 210.13707027 -71.00927734 208.11279297 C-107.64471673 185.10441172 -154.24919071 175.71330652 -197.00927734 175.67529297 C-197.701091 175.67461823 -198.39290466 175.67394348 -199.10568237 175.67324829 C-232.67282969 175.72461605 -267.74432713 181.42771167 -298.30224609 195.85888672 C-300.94677734 196.92529297 -300.94677734 196.92529297 -304.94677734 196.92529297 C-304.94677734 197.58529297 -304.94677734 198.24529297 -304.94677734 198.92529297 C-307.04761943 199.93225865 -309.15257223 200.93065187 -311.25927734 201.92529297 C-312.43103516 202.48216797 -313.60279297 203.03904297 -314.81005859 203.61279297 C-317.94677734 204.92529297 -317.94677734 204.92529297 -320.94677734 204.92529297 C-320.94677734 205.58529297 -320.94677734 206.24529297 -320.94677734 206.92529297 C-324.41177734 207.91529297 -324.41177734 207.91529297 -327.94677734 208.92529297 C-327.94677734 209.58529297 -327.94677734 210.24529297 -327.94677734 210.92529297 C-330.02880859 212.43310547 -330.02880859 212.43310547 -332.75927734 214.05029297 C-333.65259766 214.58912109 -334.54591797 215.12794922 -335.46630859 215.68310547 C-337.94677734 216.92529297 -337.94677734 216.92529297 -340.94677734 216.92529297 C-340.94677734 217.58529297 -340.94677734 218.24529297 -340.94677734 218.92529297 C-343.32568359 220.83544922 -343.32568359 220.83544922 -346.50927734 222.98779297 C-347.54181641 223.70064453 -348.57435547 224.41349609 -349.63818359 225.14794922 C-353.22463144 227.07455343 -355.91380343 227.60058445 -359.94677734 227.92529297 C-360.66865234 227.99232422 -361.39052734 228.05935547 -362.13427734 228.12841797 C-367.13297932 228.25769474 -370.47634685 227.16050821 -374.94677734 224.92529297 C-374.94677734 224.26529297 -374.94677734 223.60529297 -374.94677734 222.92529297 C-375.54490234 222.67779297 -376.14302734 222.43029297 -376.75927734 222.17529297 C-379.28264603 220.733368 -380.44707811 219.39979671 -381.94677734 216.92529297 C-381.94677734 215.93529297 -381.94677734 214.94529297 -381.94677734 213.92529297 C-382.60677734 213.92529297 -383.26677734 213.92529297 -383.94677734 213.92529297 C-385.31958008 212.33642578 -385.31958008 212.33642578 -386.88037109 210.12841797 C-387.44691406 209.33435547 -388.01345703 208.54029297 -388.59716797 207.72216797 C-389.18691406 206.88169922 -389.77666016 206.04123047 -390.38427734 205.17529297 C-391.54946612 203.5345431 -392.71482507 201.89391407 -393.88037109 200.25341797 C-394.65465454 199.15368652 -394.65465454 199.15368652 -395.44458008 198.03173828 C-396.46415905 196.602041 -397.53141277 195.20540418 -398.63842773 193.84228516 C-399.94677734 191.92529297 -399.94677734 191.92529297 -399.94677734 188.92529297 C-400.93677734 188.59529297 -401.92677734 188.26529297 -402.94677734 187.92529297 C-403.27677734 186.93529297 -403.60677734 185.94529297 -403.94677734 184.92529297 C-404.92325751 183.90231375 -405.92809073 182.90625045 -406.94677734 181.92529297 C-409.25572633 179.2088824 -410.81395199 177.32376902 -411.94677734 173.92529297 C-412.79240234 173.10029297 -413.63802734 172.27529297 -414.50927734 171.42529297 C-416.94677734 168.92529297 -416.94677734 168.92529297 -416.94677734 165.92529297 C-417.93677734 165.59529297 -418.92677734 165.26529297 -419.94677734 164.92529297 C-421.77099609 162.74560547 -421.77099609 162.74560547 -423.63427734 160.05029297 C-424.25689453 159.16599609 -424.87951172 158.28169922 -425.52099609 157.37060547 C-426.94677734 154.92529297 -426.94677734 154.92529297 -426.94677734 151.92529297 C-427.93677734 151.59529297 -428.92677734 151.26529297 -429.94677734 150.92529297 C-434.33471562 146.18226142 -435.77630977 140.94179552 -436.08349609 134.60498047 C-435.76737396 128.40898671 -433.34476277 123.3232784 -428.94677734 118.92529297 C-427.95677734 118.92529297 -426.96677734 118.92529297 -425.94677734 118.92529297 C-425.61677734 117.93529297 -425.28677734 116.94529297 -424.94677734 115.92529297 C-423.95677734 115.92529297 -422.96677734 115.92529297 -421.94677734 115.92529297 C-421.94677734 115.26529297 -421.94677734 114.60529297 -421.94677734 113.92529297 C-418.97677734 112.93529297 -418.97677734 112.93529297 -415.94677734 111.92529297 C-415.94677734 111.26529297 -415.94677734 110.60529297 -415.94677734 109.92529297 C-410.6526597 105.92529297 -410.6526597 105.92529297 -406.94677734 105.92529297 C-406.94677734 105.26529297 -406.94677734 104.60529297 -406.94677734 103.92529297 C-394.79654903 96.85065595 -382.62255197 90.01109675 -369.94677734 83.92529297 C-368.36213417 83.15447559 -366.77749911 82.38364152 -365.19287109 81.61279297 C-356.2438832 77.2882771 -347.28311512 73.35224964 -337.94677734 69.92529297 C-336.96322266 69.52955078 -335.97966797 69.13380859 -334.96630859 68.72607422 C-325.86754032 65.07042208 -316.55062509 62.28108967 -307.13916016 59.56103516 C-305.30819042 59.03009471 -303.48227399 58.48176761 -301.65771484 57.92919922 C-285.55568496 53.5731764 -269.04353289 50.71442403 -252.50927734 48.61279297 C-251.26210937 48.45375488 -250.01494141 48.2947168 -248.72998047 48.13085938 C-233.49651955 46.28061673 -218.40059845 45.68499663 -203.07177734 45.67529297 C-202.10657166 45.67461823 -201.14136597 45.67394348 -200.14691162 45.67324829 C-137.54955628 45.74224919 -77.6853611 59.73026832 -22.32177734 88.98779297 C-20.64229391 89.87489817 -18.96261345 90.76163048 -17.28271484 91.64794922 C-16.54585449 92.03732666 -15.80899414 92.4267041 -15.04980469 92.82788086 C-13.02649312 93.88369529 -10.9912415 94.91114406 -8.94677734 95.92529297 C-8.94677734 96.58529297 -8.94677734 97.24529297 -8.94677734 97.92529297 C-7.29677734 98.25529297 -5.64677734 98.58529297 -3.94677734 98.92529297 C-3.94677734 99.58529297 -3.94677734 100.24529297 -3.94677734 100.92529297 C-3.22490234 101.00779297 -2.50302734 101.09029297 -1.75927734 101.17529297 C1.65943124 102.08694859 3.31500625 103.69651217 6.05322266 105.92529297 C8.67064372 107.36585121 11.34615753 108.66244373 14.05322266 109.92529297 C14.67197266 109.10029297 15.29072266 108.27529297 15.92822266 107.42529297 C16.62947266 106.60029297 17.33072266 105.77529297 18.05322266 104.92529297 C18.71322266 104.92529297 19.37322266 104.92529297 20.05322266 104.92529297 C20.12669922 104.39419922 20.20017578 103.86310547 20.27587891 103.31591797 C21.36365942 99.97058293 23.38038654 97.4362335 25.49072266 94.67529297 C25.89871094 94.12099609 26.30669922 93.56669922 26.72705078 92.99560547 C27.78275575 91.59718388 28.91309853 90.25578644 30.05322266 88.92529297 C30.71322266 88.92529297 31.37322266 88.92529297 32.05322266 88.92529297 C32.13572266 88.34779297 32.21822266 87.77029297 32.30322266 87.17529297 C33.25900792 84.30793718 34.90407009 83.00728452 37.05322266 80.92529297 C37.38322266 79.93529297 37.71322266 78.94529297 38.05322266 77.92529297 C38.71322266 77.92529297 39.37322266 77.92529297 40.05322266 77.92529297 C40.38322266 76.60529297 40.71322266 75.28529297 41.05322266 73.92529297 C41.71322266 73.92529297 42.37322266 73.92529297 43.05322266 73.92529297 C43.42447266 72.87341797 43.42447266 72.87341797 43.80322266 71.80029297 C45.21410291 68.55526837 47.03217664 65.8221256 49.05322266 62.92529297 C48.39322266 62.92529297 47.73322266 62.92529297 47.05322266 62.92529297 C47.05322266 62.26529297 47.05322266 61.60529297 47.05322266 60.92529297 C46.08384766 60.65716797 45.11447266 60.38904297 44.11572266 60.11279297 C43.10509766 59.72091797 42.09447266 59.32904297 41.05322266 58.92529297 C40.72322266 57.93529297 40.39322266 56.94529297 40.05322266 55.92529297 C37.50151394 54.34147377 34.97716146 53.55185128 32.05322266 52.92529297 C32.05322266 52.26529297 32.05322266 51.60529297 32.05322266 50.92529297 C31.33134766 50.82216797 30.60947266 50.71904297 29.86572266 50.61279297 C26.77528844 49.85735349 24.63578424 48.76997982 22.05322266 46.92529297 C22.05322266 46.26529297 22.05322266 45.60529297 22.05322266 44.92529297 C21.40740234 44.85826172 20.76158203 44.79123047 20.09619141 44.72216797 C15.76759454 43.58862014 12.2229867 41.40288496 8.36572266 39.17529297 C6.76115973 38.26484055 5.15569593 37.3559739 3.54931641 36.44873047 C2.7782959 36.01270508 2.00727539 35.57667969 1.21289062 35.12744141 C-2.76673224 32.91224098 -6.83738743 30.88706202 -10.94677734 28.92529297 C-10.94677734 28.26529297 -10.94677734 27.60529297 -10.94677734 26.92529297 C-11.66631592 26.80541016 -12.38585449 26.68552734 -13.12719727 26.56201172 C-16.0061047 25.91189564 -18.38056901 24.96679348 -21.06005859 23.73779297 C-22.54203735 23.06744019 -22.54203735 23.06744019 -24.05395508 22.38354492 C-25.11171143 21.90232178 -26.16946777 21.42109863 -27.25927734 20.92529297 C-39.64662208 15.39730198 -52.13735729 10.38886722 -64.94677734 5.92529297 C-66.40712402 5.41337402 -66.40712402 5.41337402 -67.89697266 4.89111328 C-113.21816657 -10.71371296 -165.97688104 -19.33248803 -213.94677734 -17.07470703 C-214.90710876 -17.02963013 -214.90710876 -17.02963013 -215.88684082 -16.98364258 C-224.54743519 -16.57247165 -233.20498993 -16.11074043 -241.86083984 -15.60986328 C-242.60879822 -15.56694656 -243.35675659 -15.52402985 -244.12738037 -15.47981262 C-248.02258966 -15.25389637 -251.91614578 -15.01230386 -255.80908203 -14.75 C-256.59165375 -14.69903671 -257.37422546 -14.64807343 -258.18051147 -14.5955658 C-259.67449819 -14.49784705 -261.16820054 -14.39564749 -262.66152954 -14.28834534 C-267.72227247 -13.96245459 -267.72227247 -13.96245459 -269.94677734 -15.07470703 C-269.94677734 -14.41470703 -269.94677734 -13.75470703 -269.94677734 -13.07470703 C-271.08115234 -13.09533203 -272.21552734 -13.11595703 -273.38427734 -13.13720703 C-276.76253408 -13.4904818 -276.76253408 -13.4904818 -277.94677734 -12.07470703 C-279.73737229 -11.73962494 -281.53815896 -11.45886273 -283.34130859 -11.19970703 C-315.24528392 -6.39071684 -348.44363835 0.5846633 -378.08740234 13.70263672 C-380.97492048 14.93732685 -382.84566138 15.2072126 -385.94677734 14.92529297 C-385.94677734 15.58529297 -385.94677734 16.24529297 -385.94677734 16.92529297 C-389.12743283 18.41950324 -392.31734202 19.8928521 -395.50927734 21.36279297 C-396.40453125 21.78367188 -397.29978516 22.20455078 -398.22216797 22.63818359 C-403.19865744 24.91679599 -407.47551651 26.51250923 -412.94677734 26.92529297 C-412.94677734 27.58529297 -412.94677734 28.24529297 -412.94677734 28.92529297 C-414.45304687 29.66972656 -414.45304687 29.66972656 -415.98974609 30.42919922 C-430.97035734 37.60611374 -430.97035734 37.60611374 -445.16552734 46.14404297 C-447.94677734 47.92529297 -447.94677734 47.92529297 -450.32177734 47.67529297 C-451.12615234 47.30404297 -451.12615234 47.30404297 -451.94677734 46.92529297 C-451.61677734 45.60529297 -451.28677734 44.28529297 -450.94677734 42.92529297 C-449.95677734 42.92529297 -448.96677734 42.92529297 -447.94677734 42.92529297 C-447.61677734 41.93529297 -447.28677734 40.94529297 -446.94677734 39.92529297 C-444.93505859 38.41748047 -444.93505859 38.41748047 -442.25927734 36.80029297 C-437.98241354 34.17722285 -433.76248635 31.49655123 -429.57177734 28.73779297 C-416.12962177 20.04449241 -402.2126431 12.20829203 -387.61083984 5.64404297 C-385.02542345 4.47517577 -382.59484864 3.16809576 -380.15380859 1.72216797 C-376.97745988 -0.05751584 -375.4954352 -0.50484738 -371.94677734 -0.07470703 C-371.94677734 -0.73470703 -371.94677734 -1.39470703 -371.94677734 -2.07470703 C-323.66638569 -22.81302453 -273.18481186 -33.75911596 -220.94677734 -38.07470703 C-219.24448975 -38.21718872 -219.24448975 -38.21718872 -217.5078125 -38.36254883 C-144.16403271 -44.08855523 -66.7726829 -30.53858052 0 0 Z " fill="#FFFFFF" transform="translate(506.94677734375,138.07470703125)"/>
</svg>
